<svg xmlns="http://www.w3.org/2000/svg" version="1.1" xmlns:xlink="http://www.w3.org/1999/xlink" width="200" height="200"><svg xmlns="http://www.w3.org/2000/svg" version="1.1" xmlns:xlink="http://www.w3.org/1999/xlink" viewBox="0 0 200 200"><rect width="200" height="200" fill="url('#gradient')"></rect><defs><linearGradient id="SvgjsLinearGradient1021" gradientTransform="rotate(81 0.5 0.5)"><stop offset="0%" stop-color="#ceaa96"></stop><stop offset="100%" stop-color="#8fa983"></stop></linearGradient></defs><g><g fill="#000000" transform="matrix(7.544821940237413,0,0,7.544821940237413,1.9143827488029075,155.42034859038552)" stroke="#c8512e" stroke-width="0.2"><path d="M8.94 0L5.91-5.29L4.50-3.75L4.50 0L1.07 0L1.07-14.22L4.50-14.22L4.50-7.95L5.69-9.76L8.76-14.22L13.00-14.22L8.19-7.93L13.00 0L8.94 0ZM17.19-10.57L17.19 0L13.89 0L13.89-10.57L17.19-10.57ZM13.69-13.29L13.69-13.29Q13.69-13.99 14.20-14.44Q14.71-14.89 15.52-14.89Q16.33-14.89 16.84-14.44Q17.34-13.99 17.34-13.29Q17.34-12.59 16.84-12.14Q16.33-11.69 15.52-11.69Q14.71-11.69 14.20-12.14Q13.69-12.59 13.69-13.29ZM19.76-13.19L23.05-13.19L23.05-10.57L24.79-10.57L24.79-8.28L23.05-8.28L23.05-3.45Q23.05-2.85 23.26-2.62Q23.48-2.38 24.11-2.38L24.11-2.38Q24.60-2.38 24.93-2.44L24.93-2.44L24.93-0.09Q24.04 0.20 23.08 0.20L23.08 0.20Q21.38 0.20 20.57-0.61Q19.76-1.41 19.76-3.04L19.76-3.04L19.76-8.28L18.41-8.28L18.41-10.57L19.76-10.57L19.76-13.19Z"></path></g></g></svg><style>@media (prefers-color-scheme: light) { :root { filter: none; } }
@media (prefers-color-scheme: dark) { :root { filter: none; } }
</style></svg>